<svg id="visual" viewBox="0 0 900 600" width="900" height="600" xmlns="http://www.w3.org/2000/svg" xmlns:xlink="http://www.w3.org/1999/xlink" version="1.1"><g stroke-width="1" stroke-linejoin="bevel"><path d="M461.5 310L448.5 272L409.6 328Z" fill="#19435d" stroke="#19435d"></path><path d="M448.5 272L394.5 287L409.6 328Z" fill="#246688" stroke="#246688"></path><path d="M448.5 272L405.6 259L394.5 287Z" fill="#19435d" stroke="#19435d"></path><path d="M478.4 239L447.5 239L448.5 272Z" fill="#205a7a" stroke="#205a7a"></path><path d="M448.5 272L447.5 239L405.6 259Z" fill="#1d4e6b" stroke="#1d4e6b"></path><path d="M405.6 259L355.6 279L394.5 287Z" fill="#0c2435" stroke="#0c2435"></path><path d="M394.5 287L355.6 279L409.6 328Z" fill="#112e42" stroke="#112e42"></path><path d="M329.6 270L355.6 279L348.6 215Z" fill="#112e42" stroke="#112e42"></path><path d="M461.5 310L478.4 239L448.5 272Z" fill="#00101c" stroke="#00101c"></path><path d="M484.5 362L501.4 332L461.5 310Z" fill="#205a7a" stroke="#205a7a"></path><path d="M461.5 310L501.4 332L478.4 239Z" fill="#205a7a" stroke="#205a7a"></path><path d="M478.4 239L458.5 226L447.5 239Z" fill="#0c2435" stroke="#0c2435"></path><path d="M352.6 195L348.6 215L405.6 259Z" fill="#112e42" stroke="#112e42"></path><path d="M462.5 380L484.5 362L461.5 310Z" fill="#205a7a" stroke="#205a7a"></path><path d="M409.6 328L462.5 380L461.5 310Z" fill="#081a28" stroke="#081a28"></path><path d="M455.5 406L462.5 380L452.5 408Z" fill="#15384f" stroke="#15384f"></path><path d="M462.5 380L485.4 372L484.5 362Z" fill="#00101c" stroke="#00101c"></path><path d="M484.5 362L485.4 372L501.4 332Z" fill="#0c2435" stroke="#0c2435"></path><path d="M543.4 315L491.5 230L478.4 239Z" fill="#0c2435" stroke="#0c2435"></path><path d="M478.4 239L491.5 230L458.5 226Z" fill="#00101c" stroke="#00101c"></path><path d="M348.6 215L355.6 279L405.6 259Z" fill="#15384f" stroke="#15384f"></path><path d="M310.7 344L377.5 403L409.6 328Z" fill="#297ea6" stroke="#297ea6"></path><path d="M452.5 408L462.5 380L377.5 403Z" fill="#1d4e6b" stroke="#1d4e6b"></path><path d="M462.5 380L489.4 393L485.4 372Z" fill="#0c2435" stroke="#0c2435"></path><path d="M377.5 403L462.5 380L409.6 328Z" fill="#0c2435" stroke="#0c2435"></path><path d="M518.4 439L489.4 393L455.5 406Z" fill="#277297" stroke="#277297"></path><path d="M455.5 406L489.4 393L462.5 380Z" fill="#205a7a" stroke="#205a7a"></path><path d="M557.4 333L543.4 315L501.4 332Z" fill="#00101c" stroke="#00101c"></path><path d="M310.7 344L409.6 328L355.6 279Z" fill="#1d4e6b" stroke="#1d4e6b"></path><path d="M557.4 333L501.4 332L485.4 372Z" fill="#00101c" stroke="#00101c"></path><path d="M501.4 332L543.4 315L478.4 239Z" fill="#15384f" stroke="#15384f"></path><path d="M352.6 195L405.6 259L432.5 168Z" fill="#19435d" stroke="#19435d"></path><path d="M329.6 270L310.7 344L355.6 279Z" fill="#19435d" stroke="#19435d"></path><path d="M432.5 168L405.6 259L447.5 239Z" fill="#15384f" stroke="#15384f"></path><path d="M247.7 212L285.7 318L329.6 270Z" fill="#0c2435" stroke="#0c2435"></path><path d="M432.5 168L447.5 239L458.5 226Z" fill="#246688" stroke="#246688"></path><path d="M543.4 315L525.4 210L491.5 230Z" fill="#081a28" stroke="#081a28"></path><path d="M479.4 173L432.5 168L458.5 226Z" fill="#19435d" stroke="#19435d"></path><path d="M479.4 173L458.5 226L491.5 230Z" fill="#15384f" stroke="#15384f"></path><path d="M489.4 393L557.4 333L485.4 372Z" fill="#00101c" stroke="#00101c"></path><path d="M543.4 315L584.4 211L525.4 210Z" fill="#297ea6" stroke="#297ea6"></path><path d="M525.4 210L479.4 173L491.5 230Z" fill="#112e42" stroke="#112e42"></path><path d="M335.6 411L376.6 433L377.5 403Z" fill="#277297" stroke="#277297"></path><path d="M377.5 403L376.6 433L452.5 408Z" fill="#0c2435" stroke="#0c2435"></path><path d="M303.7 199L329.6 270L348.6 215Z" fill="#00101c" stroke="#00101c"></path><path d="M329.6 270L285.7 318L310.7 344Z" fill="#081a28" stroke="#081a28"></path><path d="M310.7 344L306.6 378L377.5 403Z" fill="#246688" stroke="#246688"></path><path d="M269.6 386L306.6 378L310.7 344Z" fill="#277297" stroke="#277297"></path><path d="M306.6 378L335.6 411L377.5 403Z" fill="#0c2435" stroke="#0c2435"></path><path d="M306.6 378L325.6 408L335.6 411Z" fill="#15384f" stroke="#15384f"></path><path d="M335.6 411L303.7 453L376.6 433Z" fill="#0c2435" stroke="#0c2435"></path><path d="M374.6 122L333.6 171L352.6 195Z" fill="#15384f" stroke="#15384f"></path><path d="M352.6 195L303.7 199L348.6 215Z" fill="#277297" stroke="#277297"></path><path d="M333.6 171L303.7 199L352.6 195Z" fill="#0c2435" stroke="#0c2435"></path><path d="M452.5 408L518.4 439L455.5 406Z" fill="#0c2435" stroke="#0c2435"></path><path d="M576.4 431L597.3 371L557.4 333Z" fill="#1d4e6b" stroke="#1d4e6b"></path><path d="M450.5 482L518.4 439L452.5 408Z" fill="#1d4e6b" stroke="#1d4e6b"></path><path d="M461.5 112L415.6 135L432.5 168Z" fill="#112e42" stroke="#112e42"></path><path d="M432.5 168L415.6 135L352.6 195Z" fill="#1d4e6b" stroke="#1d4e6b"></path><path d="M269.6 386L305.7 420L306.6 378Z" fill="#0c2435" stroke="#0c2435"></path><path d="M306.6 378L305.7 420L325.6 408Z" fill="#112e42" stroke="#112e42"></path><path d="M325.6 408L305.7 420L335.6 411Z" fill="#112e42" stroke="#112e42"></path><path d="M654.3 235L584.4 211L543.4 315Z" fill="#112e42" stroke="#112e42"></path><path d="M525.4 210L489.5 126L479.4 173Z" fill="#15384f" stroke="#15384f"></path><path d="M479.4 173L461.5 112L432.5 168Z" fill="#297ea6" stroke="#297ea6"></path><path d="M285.7 318L269.6 386L310.7 344Z" fill="#19435d" stroke="#19435d"></path><path d="M227.8 308L269.6 386L285.7 318Z" fill="#112e42" stroke="#112e42"></path><path d="M576.4 431L557.4 333L489.4 393Z" fill="#112e42" stroke="#112e42"></path><path d="M557.4 333L629.3 340L543.4 315Z" fill="#00101c" stroke="#00101c"></path><path d="M390.6 512L450.5 482L376.6 433Z" fill="#15384f" stroke="#15384f"></path><path d="M376.6 433L450.5 482L452.5 408Z" fill="#1d4e6b" stroke="#1d4e6b"></path><path d="M576.4 181L489.5 126L525.4 210Z" fill="#15384f" stroke="#15384f"></path><path d="M366.6 87L374.6 122L395.5 69Z" fill="#277297" stroke="#277297"></path><path d="M415.6 135L374.6 122L352.6 195Z" fill="#1d4e6b" stroke="#1d4e6b"></path><path d="M247.7 116L257.8 208L303.7 199Z" fill="#00101c" stroke="#00101c"></path><path d="M584.4 211L576.4 181L525.4 210Z" fill="#277297" stroke="#277297"></path><path d="M489.5 126L461.5 112L479.4 173Z" fill="#297ea6" stroke="#297ea6"></path><path d="M283.6 108L303.7 199L333.6 171Z" fill="#1d4e6b" stroke="#1d4e6b"></path><path d="M303.7 199L257.8 208L329.6 270Z" fill="#19435d" stroke="#19435d"></path><path d="M518.4 439L576.4 431L489.4 393Z" fill="#297ea6" stroke="#297ea6"></path><path d="M562.4 489L576.4 431L518.4 439Z" fill="#0c2435" stroke="#0c2435"></path><path d="M263.7 427L303.7 453L305.7 420Z" fill="#1d4e6b" stroke="#1d4e6b"></path><path d="M305.7 420L303.7 453L335.6 411Z" fill="#297ea6" stroke="#297ea6"></path><path d="M213.8 259L227.8 308L285.7 318Z" fill="#277297" stroke="#277297"></path><path d="M269.6 386L263.7 427L305.7 420Z" fill="#0c2435" stroke="#0c2435"></path><path d="M193.8 199L191.8 147L181.8 174Z" fill="#297ea6" stroke="#297ea6"></path><path d="M257.8 208L247.7 212L329.6 270Z" fill="#081a28" stroke="#081a28"></path><path d="M366.6 87L340.6 118L374.6 122Z" fill="#0c2435" stroke="#0c2435"></path><path d="M374.6 122L340.6 118L333.6 171Z" fill="#15384f" stroke="#15384f"></path><path d="M463.5 509L492.5 492L450.5 482Z" fill="#19435d" stroke="#19435d"></path><path d="M450.5 482L492.5 492L518.4 439Z" fill="#1d4e6b" stroke="#1d4e6b"></path><path d="M663.3 433L629.3 340L597.3 371Z" fill="#246688" stroke="#246688"></path><path d="M597.3 371L629.3 340L557.4 333Z" fill="#00101c" stroke="#00101c"></path><path d="M584.4 211L608.4 191L576.4 181Z" fill="#081a28" stroke="#081a28"></path><path d="M184.8 382L263.7 427L269.6 386Z" fill="#19435d" stroke="#19435d"></path><path d="M654.3 235L608.4 191L584.4 211Z" fill="#1d4e6b" stroke="#1d4e6b"></path><path d="M576.4 181L523.5 90L489.5 126Z" fill="#112e42" stroke="#112e42"></path><path d="M390.6 512L463.5 509L450.5 482Z" fill="#19435d" stroke="#19435d"></path><path d="M608.4 191L591.3 163L576.4 181Z" fill="#277297" stroke="#277297"></path><path d="M489.5 126L523.5 90L461.5 112Z" fill="#205a7a" stroke="#205a7a"></path><path d="M381.5 515L376.6 433L327.6 508Z" fill="#081a28" stroke="#081a28"></path><path d="M381.5 515L390.6 512L376.6 433Z" fill="#00101c" stroke="#00101c"></path><path d="M247.7 212L213.8 259L285.7 318Z" fill="#00101c" stroke="#00101c"></path><path d="M327.6 508L376.6 433L303.7 453Z" fill="#00101c" stroke="#00101c"></path><path d="M455.5 600L488.4 519L463.5 509Z" fill="#081a28" stroke="#081a28"></path><path d="M395.5 69L374.6 122L415.6 135Z" fill="#246688" stroke="#246688"></path><path d="M340.6 118L283.6 108L333.6 171Z" fill="#0c2435" stroke="#0c2435"></path><path d="M378.5 572L463.5 509L390.6 512Z" fill="#297ea6" stroke="#297ea6"></path><path d="M463.5 509L488.4 519L492.5 492Z" fill="#15384f" stroke="#15384f"></path><path d="M492.5 492L562.4 489L518.4 439Z" fill="#19435d" stroke="#19435d"></path><path d="M591.3 163L523.5 90L576.4 181Z" fill="#081a28" stroke="#081a28"></path><path d="M461.5 112L395.5 69L415.6 135Z" fill="#246688" stroke="#246688"></path><path d="M293.6 491L327.6 508L303.7 453Z" fill="#081a28" stroke="#081a28"></path><path d="M538.4 545L562.4 489L492.5 492Z" fill="#0c2435" stroke="#0c2435"></path><path d="M576.4 431L663.3 433L597.3 371Z" fill="#15384f" stroke="#15384f"></path><path d="M485.4 51L395.5 69L461.5 112Z" fill="#297ea6" stroke="#297ea6"></path><path d="M263.7 427L293.6 491L303.7 453Z" fill="#205a7a" stroke="#205a7a"></path><path d="M629.3 340L654.3 235L543.4 315Z" fill="#0c2435" stroke="#0c2435"></path><path d="M608.4 191L607.4 127L591.3 163Z" fill="#246688" stroke="#246688"></path><path d="M341.6 26L283.6 108L366.6 87Z" fill="#081a28" stroke="#081a28"></path><path d="M366.6 87L283.6 108L340.6 118Z" fill="#1d4e6b" stroke="#1d4e6b"></path><path d="M193.8 199L187.8 247L213.8 259Z" fill="#277297" stroke="#277297"></path><path d="M193.8 199L213.8 259L247.7 212Z" fill="#15384f" stroke="#15384f"></path><path d="M213.8 259L173.8 285L227.8 308Z" fill="#19435d" stroke="#19435d"></path><path d="M227.8 308L184.8 382L269.6 386Z" fill="#277297" stroke="#277297"></path><path d="M680.2 152L607.4 127L608.4 191Z" fill="#00101c" stroke="#00101c"></path><path d="M591.3 163L586.3 99L523.5 90Z" fill="#246688" stroke="#246688"></path><path d="M613.3 477L611.4 476L628.4 513Z" fill="#081a28" stroke="#081a28"></path><path d="M562.4 489L611.4 476L576.4 431Z" fill="#205a7a" stroke="#205a7a"></path><path d="M712.2 279L675.3 237L654.3 235Z" fill="#19435d" stroke="#19435d"></path><path d="M712.2 279L654.3 235L629.3 340Z" fill="#15384f" stroke="#15384f"></path><path d="M654.3 235L685.2 221L608.4 191Z" fill="#112e42" stroke="#112e42"></path><path d="M607.4 127L586.3 99L591.3 163Z" fill="#00101c" stroke="#00101c"></path><path d="M523.5 90L485.4 51L461.5 112Z" fill="#297ea6" stroke="#297ea6"></path><path d="M559.4 44L485.4 51L523.5 90Z" fill="#246688" stroke="#246688"></path><path d="M187.8 247L173.8 285L213.8 259Z" fill="#297ea6" stroke="#297ea6"></path><path d="M191.8 490L267.7 529L293.6 491Z" fill="#00101c" stroke="#00101c"></path><path d="M628.4 513L611.4 476L562.4 489Z" fill="#246688" stroke="#246688"></path><path d="M611.4 476L663.3 433L576.4 431Z" fill="#205a7a" stroke="#205a7a"></path><path d="M191.8 147L247.7 212L257.8 208Z" fill="#081a28" stroke="#081a28"></path><path d="M187.8 247L141.8 293L173.8 285Z" fill="#112e42" stroke="#112e42"></path><path d="M173.8 285L184.8 382L227.8 308Z" fill="#205a7a" stroke="#205a7a"></path><path d="M218.8 96L247.7 116L283.6 108Z" fill="#081a28" stroke="#081a28"></path><path d="M283.6 108L247.7 116L303.7 199Z" fill="#112e42" stroke="#112e42"></path><path d="M247.7 116L242.7 118L257.8 208Z" fill="#00101c" stroke="#00101c"></path><path d="M728.2 234L685.2 221L675.3 237Z" fill="#205a7a" stroke="#205a7a"></path><path d="M675.3 237L685.2 221L654.3 235Z" fill="#297ea6" stroke="#297ea6"></path><path d="M654.2 82L559.4 44L586.3 99Z" fill="#297ea6" stroke="#297ea6"></path><path d="M510.5 600L538.4 545L488.4 519Z" fill="#19435d" stroke="#19435d"></path><path d="M488.4 519L538.4 545L492.5 492Z" fill="#205a7a" stroke="#205a7a"></path><path d="M378.5 572L390.6 512L381.5 515Z" fill="#112e42" stroke="#112e42"></path><path d="M653.3 478L663.3 433L613.3 477Z" fill="#0c2435" stroke="#0c2435"></path><path d="M613.3 477L663.3 433L611.4 476Z" fill="#19435d" stroke="#19435d"></path><path d="M345.6 574L381.5 515L327.6 508Z" fill="#15384f" stroke="#15384f"></path><path d="M345.6 574L378.5 572L381.5 515Z" fill="#297ea6" stroke="#297ea6"></path><path d="M191.8 147L193.8 199L247.7 212Z" fill="#297ea6" stroke="#297ea6"></path><path d="M193.8 199L124.9 214L187.8 247Z" fill="#1d4e6b" stroke="#1d4e6b"></path><path d="M191.8 490L293.6 491L263.7 427Z" fill="#297ea6" stroke="#297ea6"></path><path d="M293.6 491L267.7 529L327.6 508Z" fill="#00101c" stroke="#00101c"></path><path d="M242.7 118L191.8 147L257.8 208Z" fill="#112e42" stroke="#112e42"></path><path d="M718.2 297L712.2 279L629.3 340Z" fill="#297ea6" stroke="#297ea6"></path><path d="M476.5 0L469.5 17L485.4 51Z" fill="#112e42" stroke="#112e42"></path><path d="M485.4 51L469.5 17L395.5 69Z" fill="#00101c" stroke="#00101c"></path><path d="M395.5 69L341.6 26L366.6 87Z" fill="#112e42" stroke="#112e42"></path><path d="M247.7 116L218.8 96L242.7 118Z" fill="#205a7a" stroke="#205a7a"></path><path d="M267.7 529L345.6 574L327.6 508Z" fill="#0c2435" stroke="#0c2435"></path><path d="M628.4 513L653.3 478L613.3 477Z" fill="#081a28" stroke="#081a28"></path><path d="M663.3 433L694.2 415L629.3 340Z" fill="#00101c" stroke="#00101c"></path><path d="M124.9 214L141.8 293L187.8 247Z" fill="#112e42" stroke="#112e42"></path><path d="M173.8 285L141.8 293L184.8 382Z" fill="#1d4e6b" stroke="#1d4e6b"></path><path d="M654.2 82L586.3 99L607.4 127Z" fill="#00101c" stroke="#00101c"></path><path d="M586.3 99L559.4 44L523.5 90Z" fill="#277297" stroke="#277297"></path><path d="M437.5 0L341.6 26L395.5 69Z" fill="#19435d" stroke="#19435d"></path><path d="M242.7 118L205.8 102L191.8 147Z" fill="#112e42" stroke="#112e42"></path><path d="M723.2 459L694.2 415L663.3 433Z" fill="#205a7a" stroke="#205a7a"></path><path d="M728.2 321L718.2 297L629.3 340Z" fill="#00101c" stroke="#00101c"></path><path d="M728.2 234L675.3 237L712.2 279Z" fill="#19435d" stroke="#19435d"></path><path d="M745.2 187L680.2 152L685.2 221Z" fill="#205a7a" stroke="#205a7a"></path><path d="M685.2 221L680.2 152L608.4 191Z" fill="#15384f" stroke="#15384f"></path><path d="M538.4 545L628.4 513L562.4 489Z" fill="#19435d" stroke="#19435d"></path><path d="M733.2 389L702.2 403L744.1 448Z" fill="#246688" stroke="#246688"></path><path d="M694.2 415L702.2 403L629.3 340Z" fill="#19435d" stroke="#19435d"></path><path d="M229.7 9L218.8 96L283.6 108Z" fill="#081a28" stroke="#081a28"></path><path d="M192.8 84L205.8 102L218.8 96Z" fill="#112e42" stroke="#112e42"></path><path d="M218.8 96L205.8 102L242.7 118Z" fill="#205a7a" stroke="#205a7a"></path><path d="M119.9 177L124.9 214L181.8 174Z" fill="#246688" stroke="#246688"></path><path d="M181.8 174L124.9 214L193.8 199Z" fill="#297ea6" stroke="#297ea6"></path><path d="M476.5 0L437.5 0L469.5 17Z" fill="#1d4e6b" stroke="#1d4e6b"></path><path d="M469.5 17L437.5 0L395.5 69Z" fill="#277297" stroke="#277297"></path><path d="M729.2 352L728.2 321L629.3 340Z" fill="#277297" stroke="#277297"></path><path d="M745.1 267L728.2 234L712.2 279Z" fill="#15384f" stroke="#15384f"></path><path d="M343.6 600L455.5 600L378.5 572Z" fill="#0c2435" stroke="#0c2435"></path><path d="M378.5 572L455.5 600L463.5 509Z" fill="#112e42" stroke="#112e42"></path><path d="M538.4 545L576.4 600L628.4 513Z" fill="#081a28" stroke="#081a28"></path><path d="M550.4 0L476.5 0L485.4 51Z" fill="#081a28" stroke="#081a28"></path><path d="M182.8 511L191.8 490L133.8 451Z" fill="#15384f" stroke="#15384f"></path><path d="M184.8 382L191.8 490L263.7 427Z" fill="#15384f" stroke="#15384f"></path><path d="M332.6 600L343.6 600L345.6 574Z" fill="#246688" stroke="#246688"></path><path d="M702.2 403L729.2 352L629.3 340Z" fill="#205a7a" stroke="#205a7a"></path><path d="M745.1 267L718.2 297L728.2 321Z" fill="#00101c" stroke="#00101c"></path><path d="M745.1 267L712.2 279L718.2 297Z" fill="#205a7a" stroke="#205a7a"></path><path d="M666.2 65L662.3 95L715.2 114Z" fill="#277297" stroke="#277297"></path><path d="M680.2 152L662.3 95L607.4 127Z" fill="#246688" stroke="#246688"></path><path d="M559.4 44L550.4 0L485.4 51Z" fill="#205a7a" stroke="#205a7a"></path><path d="M455.5 600L510.5 600L488.4 519Z" fill="#297ea6" stroke="#297ea6"></path><path d="M332.6 600L345.6 574L267.7 529Z" fill="#205a7a" stroke="#205a7a"></path><path d="M345.6 574L343.6 600L378.5 572Z" fill="#277297" stroke="#277297"></path><path d="M662.3 95L654.2 82L607.4 127Z" fill="#277297" stroke="#277297"></path><path d="M653.3 478L723.2 459L663.3 433Z" fill="#0c2435" stroke="#0c2435"></path><path d="M702.2 403L733.2 389L729.2 352Z" fill="#112e42" stroke="#112e42"></path><path d="M628.4 513L672.2 498L653.3 478Z" fill="#205a7a" stroke="#205a7a"></path><path d="M650.3 558L672.2 498L628.4 513Z" fill="#081a28" stroke="#081a28"></path><path d="M252.7 600L332.6 600L267.7 529Z" fill="#1d4e6b" stroke="#1d4e6b"></path><path d="M437.5 0L331.6 0L341.6 26Z" fill="#19435d" stroke="#19435d"></path><path d="M341.6 26L298.6 0L283.6 108Z" fill="#00101c" stroke="#00101c"></path><path d="M119.9 177L181.8 174L117.9 128Z" fill="#19435d" stroke="#19435d"></path><path d="M744.1 448L702.2 403L694.2 415Z" fill="#0c2435" stroke="#0c2435"></path><path d="M757.1 335L745.1 267L728.2 321Z" fill="#081a28" stroke="#081a28"></path><path d="M757.1 335L728.2 321L729.2 352Z" fill="#00101c" stroke="#00101c"></path><path d="M715.2 114L662.3 95L680.2 152Z" fill="#205a7a" stroke="#205a7a"></path><path d="M229.7 9L192.8 84L218.8 96Z" fill="#1d4e6b" stroke="#1d4e6b"></path><path d="M205.8 102L192.8 84L191.8 147Z" fill="#00101c" stroke="#00101c"></path><path d="M552.4 0L550.4 0L559.4 44Z" fill="#112e42" stroke="#112e42"></path><path d="M788.2 428L743.1 378L733.2 389Z" fill="#081a28" stroke="#081a28"></path><path d="M733.2 389L743.1 378L729.2 352Z" fill="#277297" stroke="#277297"></path><path d="M134.8 449L191.8 490L184.8 382Z" fill="#15384f" stroke="#15384f"></path><path d="M191.8 490L182.8 511L267.7 529Z" fill="#081a28" stroke="#081a28"></path><path d="M121.8 408L184.8 382L109.9 369Z" fill="#15384f" stroke="#15384f"></path><path d="M574.4 0L552.4 0L559.4 44Z" fill="#00101c" stroke="#00101c"></path><path d="M109.9 369L184.8 382L141.8 293Z" fill="#19435d" stroke="#19435d"></path><path d="M99.9 366L109.9 369L82.9 320Z" fill="#112e42" stroke="#112e42"></path><path d="M331.6 0L298.6 0L341.6 26Z" fill="#205a7a" stroke="#205a7a"></path><path d="M121.8 408L134.8 449L184.8 382Z" fill="#0c2435" stroke="#0c2435"></path><path d="M762.2 358L757.1 335L729.2 352Z" fill="#1d4e6b" stroke="#1d4e6b"></path><path d="M75.9 436L134.8 449L121.8 408Z" fill="#00101c" stroke="#00101c"></path><path d="M75.9 436L133.8 451L134.8 449Z" fill="#1d4e6b" stroke="#1d4e6b"></path><path d="M134.8 449L133.8 451L191.8 490Z" fill="#0c2435" stroke="#0c2435"></path><path d="M117.9 128L181.8 174L191.8 147Z" fill="#0c2435" stroke="#0c2435"></path><path d="M82.9 320L109.9 369L141.8 293Z" fill="#112e42" stroke="#112e42"></path><path d="M593.3 0L574.4 0L559.4 44Z" fill="#0c2435" stroke="#0c2435"></path><path d="M109.9 369L108.8 394L121.8 408Z" fill="#081a28" stroke="#081a28"></path><path d="M662.3 95L666.2 65L654.2 82Z" fill="#112e42" stroke="#112e42"></path><path d="M654.2 82L593.3 0L559.4 44Z" fill="#0c2435" stroke="#0c2435"></path><path d="M745.2 187L685.2 221L728.2 234Z" fill="#15384f" stroke="#15384f"></path><path d="M510.5 600L576.4 600L538.4 545Z" fill="#0c2435" stroke="#0c2435"></path><path d="M730.2 529L723.2 459L672.2 498Z" fill="#112e42" stroke="#112e42"></path><path d="M672.2 498L723.2 459L653.3 478Z" fill="#246688" stroke="#246688"></path><path d="M743.1 378L762.2 358L729.2 352Z" fill="#1d4e6b" stroke="#1d4e6b"></path><path d="M82.9 320L141.8 293L66.9 240Z" fill="#112e42" stroke="#112e42"></path><path d="M109.9 369L99.9 366L108.8 394Z" fill="#19435d" stroke="#19435d"></path><path d="M804.1 223L745.2 187L728.2 234Z" fill="#297ea6" stroke="#297ea6"></path><path d="M751.1 153L745.2 187L771.1 171Z" fill="#19435d" stroke="#19435d"></path><path d="M788.2 428L762.2 358L743.1 378Z" fill="#0c2435" stroke="#0c2435"></path><path d="M771.1 171L745.2 187L804.1 223Z" fill="#19435d" stroke="#19435d"></path><path d="M605.4 600L650.3 558L628.4 513Z" fill="#246688" stroke="#246688"></path><path d="M751.1 153L715.2 114L680.2 152Z" fill="#246688" stroke="#246688"></path><path d="M666.2 65L593.3 0L654.2 82Z" fill="#112e42" stroke="#112e42"></path><path d="M66.9 240L141.8 293L124.9 214Z" fill="#1d4e6b" stroke="#1d4e6b"></path><path d="M99.9 366L68.9 398L108.8 394Z" fill="#205a7a" stroke="#205a7a"></path><path d="M232.8 600L267.7 529L182.8 511Z" fill="#00101c" stroke="#00101c"></path><path d="M232.8 600L252.7 600L267.7 529Z" fill="#246688" stroke="#246688"></path><path d="M576.4 600L605.4 600L628.4 513Z" fill="#0c2435" stroke="#0c2435"></path><path d="M764.1 528L744.1 448L723.2 459Z" fill="#19435d" stroke="#19435d"></path><path d="M723.2 459L744.1 448L694.2 415Z" fill="#00101c" stroke="#00101c"></path><path d="M298.6 0L229.7 9L283.6 108Z" fill="#205a7a" stroke="#205a7a"></path><path d="M192.8 84L117.9 128L191.8 147Z" fill="#112e42" stroke="#112e42"></path><path d="M298.6 0L240.8 0L229.7 9Z" fill="#297ea6" stroke="#297ea6"></path><path d="M728.2 234L745.1 267L804.1 223Z" fill="#205a7a" stroke="#205a7a"></path><path d="M745.2 187L751.1 153L680.2 152Z" fill="#0c2435" stroke="#0c2435"></path><path d="M81.9 100L117.9 128L91.9 73Z" fill="#205a7a" stroke="#205a7a"></path><path d="M119.9 177L76.9 221L124.9 214Z" fill="#1d4e6b" stroke="#1d4e6b"></path><path d="M174.8 579L232.8 600L182.8 511Z" fill="#205a7a" stroke="#205a7a"></path><path d="M62.9 194L76.9 221L119.9 177Z" fill="#15384f" stroke="#15384f"></path><path d="M605.4 600L632.3 600L650.3 558Z" fill="#081a28" stroke="#081a28"></path><path d="M714.2 566L730.2 529L672.2 498Z" fill="#277297" stroke="#277297"></path><path d="M240.8 0L223.7 0L229.7 9Z" fill="#297ea6" stroke="#297ea6"></path><path d="M229.7 9L183.8 0L192.8 84Z" fill="#081a28" stroke="#081a28"></path><path d="M804.1 223L745.1 267L821.1 237Z" fill="#112e42" stroke="#112e42"></path><path d="M745.1 62L694.2 37L715.2 114Z" fill="#00101c" stroke="#00101c"></path><path d="M39.9 214L66.9 240L76.9 221Z" fill="#0c2435" stroke="#0c2435"></path><path d="M76.9 221L66.9 240L124.9 214Z" fill="#1d4e6b" stroke="#1d4e6b"></path><path d="M0 361L68.9 398L82.9 320Z" fill="#1d4e6b" stroke="#1d4e6b"></path><path d="M82.9 320L68.9 398L99.9 366Z" fill="#15384f" stroke="#15384f"></path><path d="M108.8 394L75.9 436L121.8 408Z" fill="#0c2435" stroke="#0c2435"></path><path d="M124.9 548L174.8 579L182.8 511Z" fill="#205a7a" stroke="#205a7a"></path><path d="M745.1 62L715.2 114L751.1 153Z" fill="#246688" stroke="#246688"></path><path d="M715.2 114L694.2 37L666.2 65Z" fill="#246688" stroke="#246688"></path><path d="M666.2 65L687.2 0L593.3 0Z" fill="#1d4e6b" stroke="#1d4e6b"></path><path d="M114.8 520L182.8 511L133.8 451Z" fill="#15384f" stroke="#15384f"></path><path d="M68.9 398L75.9 436L108.8 394Z" fill="#205a7a" stroke="#205a7a"></path><path d="M714.2 566L672.2 498L650.3 558Z" fill="#205a7a" stroke="#205a7a"></path><path d="M744.1 448L788.2 428L733.2 389Z" fill="#297ea6" stroke="#297ea6"></path><path d="M117.9 128L62.9 194L119.9 177Z" fill="#00101c" stroke="#00101c"></path><path d="M66.9 240L43.9 276L82.9 320Z" fill="#19435d" stroke="#19435d"></path><path d="M39.9 214L62.9 194L0 162Z" fill="#19435d" stroke="#19435d"></path><path d="M764.1 528L788.2 428L744.1 448Z" fill="#00101c" stroke="#00101c"></path><path d="M821.1 237L745.1 267L757.1 335Z" fill="#19435d" stroke="#19435d"></path><path d="M821.1 237L887.1 320L880.1 254Z" fill="#112e42" stroke="#112e42"></path><path d="M804.1 54L745.1 62L751.1 153Z" fill="#277297" stroke="#277297"></path><path d="M77.9 472L114.8 520L133.8 451Z" fill="#0c2435" stroke="#0c2435"></path><path d="M39.9 214L43.9 276L66.9 240Z" fill="#297ea6" stroke="#297ea6"></path><path d="M37.9 439L77.9 472L75.9 436Z" fill="#246688" stroke="#246688"></path><path d="M223.7 0L183.8 0L229.7 9Z" fill="#297ea6" stroke="#297ea6"></path><path d="M730.2 529L764.1 528L723.2 459Z" fill="#0c2435" stroke="#0c2435"></path><path d="M678.2 600L714.2 566L650.3 558Z" fill="#19435d" stroke="#19435d"></path><path d="M632.3 600L678.2 600L650.3 558Z" fill="#15384f" stroke="#15384f"></path><path d="M37.9 439L75.9 436L68.9 398Z" fill="#205a7a" stroke="#205a7a"></path><path d="M75.9 436L77.9 472L133.8 451Z" fill="#1d4e6b" stroke="#1d4e6b"></path><path d="M47.9 547L124.9 548L114.8 520Z" fill="#297ea6" stroke="#297ea6"></path><path d="M114.8 520L124.9 548L182.8 511Z" fill="#0c2435" stroke="#0c2435"></path><path d="M808.1 176L751.1 153L771.1 171Z" fill="#205a7a" stroke="#205a7a"></path><path d="M694.2 37L687.2 0L666.2 65Z" fill="#246688" stroke="#246688"></path><path d="M735.2 0L687.2 0L694.2 37Z" fill="#112e42" stroke="#112e42"></path><path d="M821.1 237L757.1 335L887.1 320Z" fill="#19435d" stroke="#19435d"></path><path d="M804.1 223L808.1 176L771.1 171Z" fill="#15384f" stroke="#15384f"></path><path d="M62.9 194L39.9 214L76.9 221Z" fill="#297ea6" stroke="#297ea6"></path><path d="M81.9 100L62.9 194L117.9 128Z" fill="#112e42" stroke="#112e42"></path><path d="M745.1 62L740.2 51L694.2 37Z" fill="#081a28" stroke="#081a28"></path><path d="M821.1 237L808.1 176L804.1 223Z" fill="#112e42" stroke="#112e42"></path><path d="M786.1 0L735.2 0L740.2 51Z" fill="#246688" stroke="#246688"></path><path d="M91.9 73L117.9 128L192.8 84Z" fill="#205a7a" stroke="#205a7a"></path><path d="M124.9 548L157.8 600L174.8 579Z" fill="#00101c" stroke="#00101c"></path><path d="M174.8 579L157.8 600L232.8 600Z" fill="#246688" stroke="#246688"></path><path d="M714.2 566L764.1 528L730.2 529Z" fill="#297ea6" stroke="#297ea6"></path><path d="M770.1 600L764.1 528L714.2 566Z" fill="#15384f" stroke="#15384f"></path><path d="M183.8 0L148.8 6L192.8 84Z" fill="#081a28" stroke="#081a28"></path><path d="M148.8 6L91.9 73L192.8 84Z" fill="#246688" stroke="#246688"></path><path d="M0 253L43.9 276L39.9 214Z" fill="#0c2435" stroke="#0c2435"></path><path d="M77.9 472L55.9 502L114.8 520Z" fill="#0c2435" stroke="#0c2435"></path><path d="M124.9 548L98.9 600L157.8 600Z" fill="#1d4e6b" stroke="#1d4e6b"></path><path d="M0 361L37.9 439L68.9 398Z" fill="#15384f" stroke="#15384f"></path><path d="M0 315L82.9 320L43.9 276Z" fill="#205a7a" stroke="#205a7a"></path><path d="M764.1 528L823.1 431L788.2 428Z" fill="#19435d" stroke="#19435d"></path><path d="M788.2 428L823.1 431L762.2 358Z" fill="#205a7a" stroke="#205a7a"></path><path d="M678.2 600L718.2 600L714.2 566Z" fill="#0c2435" stroke="#0c2435"></path><path d="M37.9 439L55.9 502L77.9 472Z" fill="#00101c" stroke="#00101c"></path><path d="M148.8 6L122.9 0L91.9 73Z" fill="#081a28" stroke="#081a28"></path><path d="M183.8 0L122.9 0L148.8 6Z" fill="#112e42" stroke="#112e42"></path><path d="M804.1 54L740.2 51L745.1 62Z" fill="#205a7a" stroke="#205a7a"></path><path d="M740.2 51L735.2 0L694.2 37Z" fill="#1d4e6b" stroke="#1d4e6b"></path><path d="M0 253L39.9 214L0 162Z" fill="#1d4e6b" stroke="#1d4e6b"></path><path d="M0 253L0 315L43.9 276Z" fill="#246688" stroke="#246688"></path><path d="M10.9 528L47.9 547L55.9 502Z" fill="#112e42" stroke="#112e42"></path><path d="M0 315L0 336L82.9 320Z" fill="#205a7a" stroke="#205a7a"></path><path d="M62.9 194L81.9 100L0 136Z" fill="#246688" stroke="#246688"></path><path d="M0 162L62.9 194L0 136Z" fill="#0c2435" stroke="#0c2435"></path><path d="M0 336L0 361L82.9 320Z" fill="#081a28" stroke="#081a28"></path><path d="M47.9 547L98.9 600L124.9 548Z" fill="#205a7a" stroke="#205a7a"></path><path d="M808.1 176L804.1 54L751.1 153Z" fill="#205a7a" stroke="#205a7a"></path><path d="M805.1 54L804.1 54L808.1 176Z" fill="#205a7a" stroke="#205a7a"></path><path d="M861.1 56L805.1 54L808.1 176Z" fill="#081a28" stroke="#081a28"></path><path d="M804.1 54L786.1 0L740.2 51Z" fill="#277297" stroke="#277297"></path><path d="M0 136L81.9 100L0 100Z" fill="#15384f" stroke="#15384f"></path><path d="M887.1 320L757.1 335L762.2 358Z" fill="#246688" stroke="#246688"></path><path d="M821.1 237L900 208L808.1 176Z" fill="#15384f" stroke="#15384f"></path><path d="M0 468L55.9 502L37.9 439Z" fill="#0c2435" stroke="#0c2435"></path><path d="M55.9 502L47.9 547L114.8 520Z" fill="#1d4e6b" stroke="#1d4e6b"></path><path d="M718.2 600L770.1 600L714.2 566Z" fill="#112e42" stroke="#112e42"></path><path d="M764.1 528L867.1 525L823.1 431Z" fill="#246688" stroke="#246688"></path><path d="M878.1 402L887.1 320L762.2 358Z" fill="#297ea6" stroke="#297ea6"></path><path d="M878.1 402L762.2 358L823.1 431Z" fill="#277297" stroke="#277297"></path><path d="M0 100L81.9 100L0 99Z" fill="#00101c" stroke="#00101c"></path><path d="M900 493L878.1 402L823.1 431Z" fill="#1d4e6b" stroke="#1d4e6b"></path><path d="M0 361L0 468L37.9 439Z" fill="#112e42" stroke="#112e42"></path><path d="M849.1 0L786.1 0L805.1 54Z" fill="#1d4e6b" stroke="#1d4e6b"></path><path d="M805.1 54L786.1 0L804.1 54Z" fill="#00101c" stroke="#00101c"></path><path d="M900 342L900 315L887.1 320Z" fill="#246688" stroke="#246688"></path><path d="M887.1 320L900 315L880.1 254Z" fill="#081a28" stroke="#081a28"></path><path d="M878.1 402L900 342L887.1 320Z" fill="#00101c" stroke="#00101c"></path><path d="M122.9 0L62.9 0L91.9 73Z" fill="#205a7a" stroke="#205a7a"></path><path d="M0 99L81.9 100L12.9 59Z" fill="#0c2435" stroke="#0c2435"></path><path d="M12.9 59L81.9 100L91.9 73Z" fill="#246688" stroke="#246688"></path><path d="M0 468L10.9 528L55.9 502Z" fill="#277297" stroke="#277297"></path><path d="M47.9 547L9.9 600L98.9 600Z" fill="#081a28" stroke="#081a28"></path><path d="M900 315L900 208L880.1 254Z" fill="#297ea6" stroke="#297ea6"></path><path d="M880.1 254L900 208L821.1 237Z" fill="#1d4e6b" stroke="#1d4e6b"></path><path d="M900 493L900 392L878.1 402Z" fill="#0c2435" stroke="#0c2435"></path><path d="M878.1 402L900 392L900 342Z" fill="#00101c" stroke="#00101c"></path><path d="M770.1 600L804.1 600L764.1 528Z" fill="#277297" stroke="#277297"></path><path d="M62.9 0L12.9 59L91.9 73Z" fill="#277297" stroke="#277297"></path><path d="M804.1 600L848.1 548L764.1 528Z" fill="#246688" stroke="#246688"></path><path d="M900 208L900 161L808.1 176Z" fill="#297ea6" stroke="#297ea6"></path><path d="M848.1 548L867.1 525L764.1 528Z" fill="#297ea6" stroke="#297ea6"></path><path d="M900 161L897.1 145L808.1 176Z" fill="#081a28" stroke="#081a28"></path><path d="M0 468L0 546L10.9 528Z" fill="#277297" stroke="#277297"></path><path d="M10.9 528L0 546L47.9 547Z" fill="#00101c" stroke="#00101c"></path><path d="M900 126L861.1 56L808.1 176Z" fill="#081a28" stroke="#081a28"></path><path d="M804.1 600L831.1 600L848.1 548Z" fill="#19435d" stroke="#19435d"></path><path d="M848.1 548L900 582L867.1 525Z" fill="#15384f" stroke="#15384f"></path><path d="M897.1 145L900 126L808.1 176Z" fill="#0c2435" stroke="#0c2435"></path><path d="M900 161L900 126L897.1 145Z" fill="#1d4e6b" stroke="#1d4e6b"></path><path d="M900 503L900 493L867.1 525Z" fill="#205a7a" stroke="#205a7a"></path><path d="M867.1 525L900 493L823.1 431Z" fill="#297ea6" stroke="#297ea6"></path><path d="M900 582L900 503L867.1 525Z" fill="#00101c" stroke="#00101c"></path><path d="M0 546L9.9 600L47.9 547Z" fill="#1d4e6b" stroke="#1d4e6b"></path><path d="M900 21L849.1 0L861.1 56Z" fill="#246688" stroke="#246688"></path><path d="M861.1 56L849.1 0L805.1 54Z" fill="#15384f" stroke="#15384f"></path><path d="M900 126L900 82L861.1 56Z" fill="#1d4e6b" stroke="#1d4e6b"></path><path d="M0 546L0 597L9.9 600Z" fill="#1d4e6b" stroke="#1d4e6b"></path><path d="M62.9 0L0 0L12.9 59Z" fill="#277297" stroke="#277297"></path><path d="M12.9 59L0 0L0 99Z" fill="#19435d" stroke="#19435d"></path><path d="M0 597L0 600L9.9 600Z" fill="#15384f" stroke="#15384f"></path><path d="M900 82L900 21L861.1 56Z" fill="#19435d" stroke="#19435d"></path><path d="M831.1 600L900 582L848.1 548Z" fill="#205a7a" stroke="#205a7a"></path><path d="M900 21L900 0L849.1 0Z" fill="#112e42" stroke="#112e42"></path><path d="M831.1 600L900 600L900 582Z" fill="#277297" stroke="#277297"></path></g></svg>