<?xml version="1.0" encoding="UTF-8"?>
<!-- Generator: Adobe Illustrator 26.2.1, SVG Export Plug-In . SVG Version: 6.00 Build 0)  -->
<svg version="1.1" id="Layer_1" xmlns="http://www.w3.org/2000/svg" xmlns:xlink="http://www.w3.org/1999/xlink" x="0px" y="0px" viewBox="0 0 481.5 153.2" style="enable-background:new 0 0 481.5 153.2;" xml:space="preserve">
<style type="text/css">
	.st0{fill:#E10600;}
</style>
<g>
	<polygon class="st0" points="295.8,124.9 390.6,28.9 452.9,28.9 356.9,124.9  "/>
	<path class="st0" d="M348.8,66.3l37.4-37.4H193.8c-57,0-71.1,3.8-100.1,32.8l-63.2,63.2h57L129.7,83c13-12.9,19.5-16.7,55.6-16.7   L348.8,66.3z"/>
	<path class="st0" d="M189.1,69.6c-38.2,0-44.1,3.1-56.3,15.4l-39.5,39.9h57.2l13.3-13.3c3.7-3.7,6.8-4.8,16.7-4.8H309l36.4-37.2   H189.1z"/>
	<polygon class="st0" points="376.1,118.5 381.2,118.5 381.2,119.4 379.2,119.4 379.2,124.9 378.1,124.9 378.1,119.4 376.1,119.4     "/>
	<polygon class="st0" points="382.2,118.5 383.8,118.5 385.6,123.5 385.6,123.5 387.3,118.5 388.9,118.5 388.9,124.9 387.8,124.9    387.8,119.9 387.8,119.9 386,124.9 385.1,124.9 383.3,119.9 383.3,119.9 383.3,124.9 382.2,124.9  "/>
</g>
</svg>